<?xml version="1.0" encoding="utf-8"?>
<!-- Generator: Adobe Illustrator 24.0.1, SVG Export Plug-In . SVG Version: 6.00 Build 0)  -->
<svg version="1.1" id="Layer_1" xmlns="http://www.w3.org/2000/svg" xmlns:xlink="http://www.w3.org/1999/xlink" x="0px" y="0px"
	 viewBox="0 0 1366 768" style="enable-background:new 0 0 1366 768;" xml:space="preserve">
<style type="text/css">
	.st0{fill:#FFFFFF;stroke:#FFFFFF;stroke-width:3;stroke-miterlimit:10;}
</style>
<svg>
<g>
	<path class="st0" d="M208.38,415.3v-50.1c0-4.13,0.24-9.1,0.73-14.89h-0.24c-0.85,3.65-1.6,6.19-2.25,7.62l-24.95,57.37h-5.42
		l-24.9-56.93c-0.59-1.3-1.33-3.99-2.25-8.06h-0.29c0.33,3.52,0.49,8.63,0.49,15.33v49.66h-9.33v-75.63h13.23l22.31,51.85
		c1.69,3.97,2.82,7.06,3.37,9.28h0.34c1.69-4.65,2.88-7.81,3.56-9.47l22.71-51.66h12.6v75.63H208.38z"/>
	<path class="st0" d="M293.73,384.49c0,21.39-9.7,32.08-29.1,32.08c-18.59,0-27.88-10.32-27.88-30.96v-45.95h9.77v45.51
		c0,15.14,6.35,22.71,19.04,22.71c12.27,0,18.41-7.32,18.41-21.97v-46.24h9.77V384.49z"/>
	<path class="st0" d="M370.15,415.3h-9.77v-34.08H322.1v34.08h-9.77v-75.63h9.77v32.86h38.28v-32.86h9.77V415.3z"/>
	<path class="st0" d="M449.1,415.3h-10.79l-7.71-20.7H399.1l-7.28,20.7h-10.79l28.81-75.63h10.45L449.1,415.3z M427.57,386.05
		l-11.43-31.44c-0.36-1.01-0.75-2.77-1.17-5.27h-0.24c-0.36,2.28-0.77,4.04-1.22,5.27l-11.33,31.44H427.57z"/>
	<path class="st0" d="M528.45,415.3v-50.1c0-4.13,0.24-9.1,0.73-14.89h-0.24c-0.85,3.65-1.6,6.19-2.25,7.62l-24.95,57.37h-5.42
		l-24.9-56.93c-0.59-1.3-1.33-3.99-2.25-8.06h-0.29c0.33,3.52,0.49,8.63,0.49,15.33v49.66h-9.33v-75.63h13.23l22.31,51.85
		c1.69,3.97,2.82,7.06,3.37,9.28h0.34c1.69-4.65,2.88-7.81,3.56-9.47l22.71-51.66h12.6v75.63H528.45z"/>
	<path class="st0" d="M626.15,415.3v-50.1c0-4.13,0.24-9.1,0.73-14.89h-0.24c-0.85,3.65-1.6,6.19-2.25,7.62l-24.95,57.37h-5.42
		l-24.9-56.93c-0.59-1.3-1.33-3.99-2.25-8.06h-0.29c0.33,3.52,0.49,8.63,0.49,15.33v49.66h-9.33v-75.63h13.23l22.31,51.85
		c1.69,3.97,2.82,7.06,3.37,9.28H597c1.69-4.65,2.88-7.81,3.56-9.47l22.71-51.66h12.6v75.63H626.15z"/>
	<path class="st0" d="M696.12,415.3h-40.67v-75.63h38.96v8.69h-29.2v24.22h27.05v8.64h-27.05v25.44h30.91V415.3z"/>
	<path class="st0" d="M710.43,415.3v-75.63h21.58c11.46,0,20.99,3.34,28.59,10.01c7.6,6.67,11.4,15.63,11.4,26.86
		c0,11.72-3.8,21.11-11.4,28.17c-7.6,7.06-17.39,10.6-29.37,10.6H710.43z M720.2,348.36v58.3h10.99c9.6,0,17.1-2.62,22.49-7.86
		c5.39-5.24,8.08-12.58,8.08-22.02c0-9.44-2.77-16.54-8.3-21.29c-5.53-4.75-12.81-7.13-21.83-7.13H720.2z"/>
	<path class="st0" d="M816.19,415.3v-75.63h22.22c6.64,0,11.95,1.59,15.92,4.76c3.97,3.17,5.96,7.38,5.96,12.62
		c0,4.17-1.18,7.85-3.54,11.04c-2.36,3.19-5.61,5.45-9.74,6.79v0.2c5.14,0.59,9.25,2.53,12.33,5.83c3.08,3.3,4.61,7.49,4.61,12.57
		c0,6.51-2.34,11.78-7.01,15.8c-4.67,4.02-10.65,6.03-17.94,6.03H816.19z M825.96,348.21v23.68h8.89c4.72,0,8.42-1.15,11.11-3.44
		s4.03-5.48,4.03-9.55c0-7.13-4.75-10.69-14.26-10.69H825.96z M825.96,380.39v26.37h11.72c5.11,0,9.06-1.18,11.84-3.54
		c2.78-2.36,4.17-5.64,4.17-9.84c0-8.66-5.88-12.99-17.63-12.99H825.96z"/>
	<path class="st0" d="M874.05,378.39c0-12.21,3.3-21.92,9.91-29.15c6.61-7.23,15.56-10.84,26.86-10.84
		c10.51,0,18.98,3.53,25.39,10.6c6.41,7.06,9.62,16.26,9.62,27.59c0,12.27-3.29,22.01-9.86,29.2c-6.58,7.2-15.37,10.79-26.37,10.79
		c-10.74,0-19.35-3.53-25.83-10.6C877.29,398.91,874.05,389.71,874.05,378.39z M884.31,377.61c0,9.15,2.33,16.48,7.01,22
		c4.67,5.52,10.77,8.28,18.29,8.28c8.07,0,14.41-2.64,19.02-7.93c4.61-5.29,6.91-12.69,6.91-22.19c0-9.77-2.25-17.3-6.76-22.61
		c-4.51-5.31-10.69-7.96-18.53-7.96c-7.71,0-13.96,2.8-18.75,8.4C886.7,361.18,884.31,368.52,884.31,377.61z"/>
	<path class="st0" d="M980.6,387.86c0,9.15-1.94,16.22-5.81,21.22c-3.87,5-9.15,7.49-15.82,7.49c-3.09,0-5.65-0.46-7.67-1.37v-9.52
		c2.02,1.46,4.56,2.2,7.62,2.2c7.94,0,11.91-6.67,11.91-20.02v-48.19h9.77V387.86z"/>
	<path class="st0" d="M1056.96,415.3h-10.79l-7.71-20.7h-31.49l-7.28,20.7H988.9l28.81-75.63h10.45L1056.96,415.3z M1035.43,386.05
		L1024,354.61c-0.36-1.01-0.75-2.77-1.17-5.27h-0.24c-0.36,2.28-0.77,4.04-1.22,5.27l-11.33,31.44H1035.43z"/>
	<path class="st0" d="M1129.67,415.3h-11.57l-38.04-58.84c-1.07-1.66-1.94-3.3-2.59-4.93h-0.29c0.26,1.69,0.39,5.22,0.39,10.6v53.17
		h-9.67v-75.63h12.26l37.01,57.81c1.76,2.73,2.8,4.48,3.13,5.22h0.2c-0.33-2.15-0.49-5.83-0.49-11.04v-52h9.67V415.3z"/>
	<path class="st0" d="M1206.38,410.13c-7.55,4.3-16.08,6.45-25.59,6.45c-10.94,0-19.75-3.46-26.44-10.38
		c-6.69-6.92-10.03-16.15-10.03-27.71c0-11.69,3.69-21.29,11.08-28.81c7.39-7.52,16.86-11.28,28.42-11.28
		c8.17,0,15.09,1.3,20.75,3.91v10.55c-6.05-3.81-13.27-5.71-21.63-5.71c-8.24,0-15.02,2.82-20.36,8.45
		c-5.34,5.63-8.01,13.05-8.01,22.27c0,9.47,2.46,16.85,7.37,22.12c4.92,5.27,11.56,7.91,19.92,7.91c5.76,0,10.66-1.11,14.7-3.32
		V384.1h-16.41v-8.64h26.22V410.13z"/>
</g>
</svg>
