<!-- Generated by IcoMoon.io -->
<svg version="1.1" xmlns="http://www.w3.org/2000/svg" width="32" height="32" viewBox="0 0 32 32">
<title>reactrouter</title>
<path fill="#ca4245" d="M16.157 7.288c-0.008-0-0.018-0-0.027-0-0.286 0-0.562 0.039-0.825 0.112l0.022-0.005c-0.371 0.089-0.936 0.443-1.271 0.777-0.547 0.564-0.653 0.812-0.883 1.959-0.107 0.564 0.547 1.907 1.129 2.312 0.6 0.423 1.447 0.669 2.753 0.811 1.905 0.213 2.453 0.848 2.453 2.929 0 1.836-0.513 2.329-2.613 2.541-2.276 0.229-3.44 1.112-3.687 2.823-0.141 1.041 0.547 2.347 1.5 2.788 2.169 1.024 4.2-0.264 4.623-2.928 0.281-1.712 0.829-2.189 2.664-2.329 2.117-0.177 3.212-0.9 3.617-2.383 0.371-1.36-0.405-2.876-1.729-3.405-0.352-0.141-1.164-0.317-1.8-0.388-1.993-0.213-2.505-0.565-2.717-1.853-0.3-1.783-0.423-2.083-1.059-2.787-0.53-0.594-1.296-0.968-2.15-0.973h-0.001zM9.777 13.101c-0.017-0-0.038-0.001-0.058-0.001-0.214 0-0.423 0.024-0.623 0.068l0.019-0.004c-1.959 0.424-2.893 2.735-1.8 4.393 1.571 2.365 5.259 1.271 5.293-1.569 0.016-1.591-1.307-2.857-2.831-2.888zM2.785 18.92c-0.204 0.005-0.4 0.030-0.589 0.073l0.020-0.004c-2.877 0.635-2.983 4.835-0.141 5.576 0.707 0.193 0.776 0.193 1.481 0.017 1.588-0.424 2.488-1.941 2.065-3.476-0.371-1.36-1.525-2.219-2.836-2.187zM29.217 18.931c-0.311 0.003-0.636 0.077-1.045 0.216-1.853 0.636-2.488 2.789-1.307 4.448 0.743 1.059 2.613 1.411 3.76 0.688 1.888-1.165 1.817-4.076-0.124-4.995-0.507-0.248-0.884-0.361-1.284-0.357z"></path>
</svg>
